<?xml version="1.0" standalone="no"?>
<!DOCTYPE svg PUBLIC "-//W3C//DTD SVG 20010904//EN"
 "http://www.w3.org/TR/2001/REC-SVG-20010904/DTD/svg10.dtd">
<svg version="1.0" xmlns="http://www.w3.org/2000/svg"
 width="216.000000pt" height="234.000000pt" viewBox="0 0 216.000000 234.000000"
 preserveAspectRatio="xMidYMid meet">

<g transform="translate(0.000000,234.000000) scale(0.100000,-0.100000)"
fill="#000000" stroke="none">
<path d="M950 2204 c-14 -2 -52 -9 -85 -15 -89 -16 -105 -29 -105 -89 l0 -49
-57 -16 c-78 -23 -193 -76 -249 -117 -49 -35 -84 -91 -84 -134 0 -15 -14 -42
-33 -65 -37 -43 -57 -96 -57 -155 -1 -35 -11 -51 -94 -147 -97 -113 -159 -206
-178 -269 -17 -58 1 -87 104 -162 49 -37 97 -80 106 -96 12 -21 25 -30 42 -30
14 0 36 -7 49 -16 29 -21 89 -35 97 -23 3 5 1 9 -5 9 -9 0 -41 50 -41 63 0 3
30 17 66 33 92 39 100 32 95 -77 -3 -67 -8 -89 -25 -111 -28 -35 -32 -35 -46
7 -6 19 -15 35 -20 35 -9 0 -20 -35 -20 -68 0 -13 -9 -31 -19 -40 -20 -17 -27
-57 -23 -129 3 -45 51 -96 104 -112 24 -7 92 -38 153 -67 60 -30 116 -54 122
-54 9 0 13 -17 13 -53 0 -29 6 -61 13 -70 33 -44 357 -68 512 -38 102 19 115
30 115 94 l0 53 58 18 c107 33 234 110 290 175 37 42 52 68 52 89 0 16 -3 32
-7 36 -4 4 -6 25 -4 47 3 47 -7 99 -19 99 -5 0 -15 -18 -21 -40 -16 -53 -34
-49 -73 13 -21 35 -31 65 -34 106 l-4 58 32 7 c68 13 140 3 140 -19 0 -8 -12
-27 -26 -44 l-26 -31 26 0 c15 0 43 7 63 15 19 8 46 15 59 15 16 0 47 21 87
58 35 31 85 76 111 99 48 42 49 43 44 94 -6 59 -49 147 -145 292 -54 82 -67
110 -71 151 -4 39 -15 63 -53 116 -42 57 -49 73 -49 114 0 26 -6 59 -14 75
-38 73 -156 142 -322 189 l-93 26 -3 55 -3 56 -70 18 c-68 18 -317 32 -375 21z
m345 -29 c37 -8 74 -20 81 -26 21 -17 21 -1941 0 -1958 -25 -21 -166 -41 -284
-41 -116 0 -192 8 -271 30 l-41 11 2 981 3 982 45 13 c115 34 325 37 465 8z
m-733 -251 c-23 -20 -47 -44 -52 -55 -10 -18 -10 -18 22 0 18 10 44 22 58 26
20 6 16 -1 -22 -37 -68 -63 -64 -90 5 -38 66 51 74 51 25 0 -58 -62 -50 -77
23 -39 49 25 58 21 24 -11 -32 -30 -32 -44 0 -36 26 7 65 -22 65 -48 0 -22
-40 -66 -61 -66 -22 0 -24 -12 -6 -40 27 -45 -49 -53 -131 -15 -52 24 -113 32
-146 19 -11 -4 -16 -19 -16 -45 0 -21 -4 -39 -8 -39 -4 0 -18 -20 -30 -45 -22
-45 -22 -45 -1 -45 24 0 71 23 88 44 7 8 20 12 29 8 13 -4 11 1 -6 22 -24 31
-28 46 -12 46 5 0 17 -15 27 -32 l18 -33 3 27 c2 14 10 32 19 40 14 11 15 8
12 -29 -5 -44 0 -45 37 -11 14 13 24 16 29 9 9 -16 85 -13 118 3 15 8 27 11
27 6 0 -12 -44 -45 -80 -60 -23 -9 -29 -17 -25 -31 5 -14 0 -18 -27 -21 l-33
-3 33 -18 c19 -10 32 -20 30 -23 -3 -2 -37 4 -78 15 -72 18 -72 18 -49 -1 13
-11 42 -28 64 -38 l40 -20 -40 0 c-22 0 -55 4 -73 9 -17 5 -32 8 -32 6 0 -10
67 -38 133 -54 62 -16 68 -19 45 -26 -15 -4 -60 -3 -100 3 -40 5 -75 8 -77 6
-11 -10 100 -26 186 -27 113 -1 115 -10 8 -28 -38 -7 -71 -13 -73 -15 -2 -1 9
-14 23 -28 l26 -26 61 24 60 25 -23 -25 c-21 -22 -21 -24 -3 -24 10 -1 30 -7
43 -14 l23 -13 -33 -7 -34 -7 26 -14 c15 -8 29 -21 32 -29 5 -12 0 -13 -26 -5
-33 9 -85 12 -57 3 43 -14 90 -38 90 -46 0 -11 -7 -10 -41 8 -17 8 -33 13 -36
10 -3 -3 2 -8 11 -12 9 -3 16 -10 16 -15 0 -5 -12 -4 -26 1 -14 6 -58 9 -97 9
l-72 -2 67 -7 c97 -12 124 -19 153 -41 24 -20 25 -24 25 -135 0 -97 -2 -114
-16 -114 -10 0 -13 -6 -9 -19 4 -15 -1 -21 -26 -30 -18 -6 -41 -11 -52 -11
-16 0 -17 -3 -7 -15 11 -13 8 -15 -18 -15 -22 0 -31 -6 -35 -21 -5 -17 -11
-20 -31 -15 -14 3 -27 2 -30 -3 -3 -5 -15 -7 -26 -4 -16 4 -20 0 -20 -18 l0
-22 -25 23 c-28 26 -33 13 -15 -36 6 -15 8 -29 5 -32 -8 -8 -45 81 -45 109 0
25 3 27 62 33 34 3 69 13 78 21 9 8 30 15 47 15 18 0 45 11 66 28 20 15 48 36
63 46 25 18 26 22 21 82 -9 117 -48 149 -181 148 -95 -1 -166 -20 -234 -61
-19 -12 -42 -19 -52 -16 -18 5 -106 113 -92 113 4 0 15 14 24 31 10 16 31 35
48 40 21 8 30 18 30 32 0 12 3 33 7 47 6 24 5 24 -13 9 -10 -9 -47 -21 -80
-26 -34 -6 -81 -21 -105 -32 -56 -28 -59 -27 -59 14 0 49 63 150 177 284 89
105 93 112 93 158 0 61 29 124 69 154 26 19 31 28 26 51 -8 36 22 86 78 132
79 63 149 91 79 30z m1080 -42 c23 -20 49 -56 59 -80 14 -32 25 -44 47 -48 19
-4 35 -17 46 -37 22 -43 60 -97 84 -122 13 -13 21 -39 24 -76 4 -46 12 -66 50
-120 67 -95 168 -272 168 -296 0 -24 -30 -24 -78 1 -41 21 -71 20 -107 -4 -23
-15 -26 -20 -11 -20 27 0 86 -63 86 -93 0 -16 -16 -39 -50 -71 -27 -25 -54
-46 -60 -46 -16 0 -47 17 -109 59 -50 33 -59 36 -140 39 -120 5 -159 -10 -189
-69 -32 -65 -40 -143 -17 -169 44 -48 216 -120 289 -120 20 0 36 -4 36 -9 0
-5 3 -16 6 -25 4 -9 -4 -20 -23 -30 -16 -8 -41 -33 -56 -55 -44 -67 -78 -30
-52 57 8 25 13 48 11 49 -2 2 -15 -1 -30 -7 -43 -16 -76 -13 -76 8 0 10 5 23
11 29 9 9 2 9 -26 3 -47 -11 -68 -3 -62 21 4 16 0 18 -26 16 -29 -2 -32 0 -30
26 1 15 -2 27 -8 27 -5 0 -9 44 -9 98 0 138 8 146 174 178 l71 14 -75 -4 c-41
-3 -84 -7 -95 -11 -16 -6 -16 -3 5 14 l25 21 -28 -10 c-16 -5 -38 -15 -49 -21
-16 -9 -19 -8 -16 3 3 7 29 23 59 36 44 19 48 22 19 17 -19 -4 -43 -9 -52 -11
-29 -9 -20 15 14 35 l31 20 -39 3 -39 4 30 12 c17 7 37 15 45 18 12 5 11 9 -7
21 -13 9 -23 19 -23 24 0 5 10 3 23 -5 12 -8 41 -20 65 -27 40 -12 44 -11 58
9 8 12 23 22 32 23 9 1 -1 5 -23 10 -22 4 -65 14 -95 21 l-55 12 120 7 c66 4
131 11 145 16 18 7 -5 9 -80 5 -58 -2 -103 -2 -100 1 3 3 42 15 87 27 45 12
90 29 100 37 17 14 17 14 0 9 -10 -3 -44 -9 -75 -12 -62 -6 -63 -8 26 43 24
14 42 26 40 29 -2 2 -26 -3 -53 -11 -77 -24 -97 -20 -50 10 l40 25 -42 -6
c-42 -6 -54 1 -33 22 7 7 -3 16 -30 28 -41 18 -95 74 -104 109 -4 15 -2 17 7
8 24 -24 35 -11 39 49 3 38 11 66 22 79 18 20 18 21 -5 30 -13 5 -33 11 -44
14 -11 4 6 5 38 3 l58 -3 -28 29 -28 30 30 -8 c17 -4 38 -11 48 -16 30 -16 29
-4 -3 37 -16 21 -30 40 -30 42 0 10 65 -35 86 -61 14 -16 28 -26 31 -22 11 11
-25 74 -69 123 -50 54 -21 44 44 -15z m-118 -453 l31 -19 -37 0 c-41 0 -68 27
-68 69 l0 24 22 -28 c12 -15 35 -36 52 -46z m-794 51 c0 -26 -32 -68 -55 -74
-41 -10 -50 4 -16 25 17 10 36 28 43 39 14 22 28 27 28 10z m-56 -586 c19 -18
8 -47 -24 -64 -14 -8 -20 -21 -20 -47 0 -28 -8 -43 -34 -68 -19 -18 -43 -35
-54 -37 -19 -5 -18 -4 3 28 14 21 26 57 30 96 8 67 17 85 50 98 29 12 32 12
49 -6z m911 -4 c12 -13 19 -42 22 -92 3 -40 11 -83 19 -95 21 -33 17 -37 -13
-17 -46 29 -62 56 -63 101 0 23 -6 46 -12 50 -24 15 -38 41 -32 57 9 22 57 20
79 -4z m-1218 -56 c-6 -7 -57 18 -57 27 0 4 8 12 18 18 13 8 20 5 30 -16 8
-13 12 -27 9 -29z m1489 32 c18 -14 17 -15 -18 -30 -50 -21 -52 -21 -31 14 20
34 22 35 49 16z m-1386 -200 c14 -14 12 -23 -5 -30 -31 -12 -45 5 -45 53 0 62
11 72 27 24 8 -21 18 -42 23 -47z m1308 8 c-3 -34 -6 -39 -31 -42 l-28 -3 21
38 c11 21 20 44 20 52 0 11 3 12 11 4 6 -6 9 -28 7 -49z m-348 -198 c0 -2 -7
-7 -16 -10 -8 -3 -12 -2 -9 4 6 10 25 14 25 6z m-687 -36 c9 0 17 -7 17 -15 0
-19 -7 -18 -50 6 -28 16 -30 19 -10 15 14 -3 33 -6 43 -6z m707 -10 c-41 -23
-53 -25 -48 -8 3 7 15 15 29 19 46 13 54 8 19 -11z m-767 -27 c75 -15 77 -17
77 -45 l0 -28 -92 46 c-91 45 -123 64 -83 50 11 -4 55 -15 98 -23z m907 22 c0
-5 -127 -70 -166 -85 -22 -9 -24 -7 -24 19 0 28 3 29 63 40 50 9 93 19 125 30
1 1 2 -1 2 -4z"/>
<path d="M1015 2154 c-44 -4 -150 -22 -178 -30 -16 -5 -17 -57 -15 -952 l3
-947 50 -14 c71 -20 364 -20 425 0 l45 15 3 942 c2 894 1 942 -16 951 -39 21
-234 42 -317 35z m35 -334 l0 -210 90 0 90 0 0 -40 0 -40 -145 0 -145 0 0 250
0 250 55 0 55 0 0 -210z m170 -385 l0 -45 -90 0 -90 0 0 -55 0 -55 85 0 85 0
0 -45 0 -45 -85 0 -85 0 0 -65 0 -65 95 0 95 0 0 -45 0 -45 -145 0 -145 0 0
255 0 255 140 0 140 0 0 -45z m-39 -528 c43 -29 59 -62 72 -152 21 -155 -13
-290 -83 -327 -45 -23 -125 -23 -170 0 -70 37 -104 172 -83 327 13 90 29 123
72 152 48 32 144 32 192 0z m-67 -563 c9 -8 16 -22 16 -29 0 -18 -27 -45 -45
-45 -19 0 -45 28 -45 49 0 38 45 54 74 25z"/>
<path d="M1060 847 c-32 -16 -38 -41 -39 -175 -1 -145 12 -182 64 -182 55 0
67 39 63 202 -3 122 -4 131 -27 149 -27 22 -29 22 -61 6z"/>
<path d="M1060 336 c-8 -10 -8 -21 -2 -32 8 -14 10 -11 14 15 5 36 5 36 -12
17z"/>
<path d="M1098 319 c3 -21 7 -27 13 -18 4 7 3 21 -2 31 -14 25 -16 23 -11 -13z"/>
<path d="M197 1296 c-26 -33 -57 -76 -68 -93 l-21 -33 24 0 c42 0 68 12 68 31
0 10 11 49 25 86 13 37 23 68 22 69 -1 1 -24 -26 -50 -60z"/>
<path d="M386 1095 c-64 -26 -166 -92 -166 -106 0 -15 11 -10 49 19 20 15 72
46 116 69 90 47 90 55 1 18z"/>
<path d="M374 1050 c-68 -34 -132 -85 -121 -96 4 -4 20 4 35 19 15 14 58 44
97 66 81 48 75 54 -11 11z"/>
<path d="M395 1021 c-51 -24 -125 -78 -125 -92 0 -5 17 4 38 20 20 17 62 44
92 60 61 34 58 41 -5 12z"/>
<path d="M1711 1555 c-79 -27 -131 -31 -162 -14 -18 9 -19 8 -10 -9 25 -47
153 -55 164 -10 8 31 32 16 29 -18 l-2 -29 30 34 c35 41 44 39 25 -6 -10 -25
-23 -34 -54 -43 -43 -11 -56 -30 -21 -30 11 0 37 7 58 16 36 15 38 14 57 -9
17 -20 94 -67 110 -67 3 0 -8 24 -24 53 -16 28 -32 71 -36 95 -11 69 -44 76
-164 37z"/>
<path d="M1936 1308 c19 -20 54 -30 54 -15 0 22 -15 33 -42 32 -24 0 -25 -2
-12 -17z"/>
<path d="M1980 1247 c21 -28 50 -41 50 -22 0 8 -8 15 -18 15 -10 0 -24 6 -32
13 -12 10 -12 9 0 -6z"/>
<path d="M1725 1138 c46 -24 155 -109 155 -121 0 -5 -12 0 -27 11 -52 36 -131
71 -175 77 -43 6 -43 6 17 -17 69 -27 179 -88 171 -95 -2 -3 -33 4 -68 16 -80
26 -199 53 -205 47 -3 -3 8 -8 23 -11 70 -15 125 -31 208 -62 80 -30 91 -32
105 -18 14 13 10 21 -38 69 -54 54 -163 126 -191 126 -8 -1 3 -10 25 -22z"/>
</g>
</svg>
